<svg width="30" height="30" viewBox="0 0 30 30" fill="none" xmlns="http://www.w3.org/2000/svg">
<path d="M23.4743 0H6.52755C5.03405 0 3.76562 1.20455 3.76562 2.76193V27.8204C3.77002 29.7971 6.1844 30.7246 7.55701 29.3371L14.0166 22.8793C14.5343 22.3392 15.4675 22.3392 15.9852 22.8793L22.4448 29.3371C23.818 30.7252 26.2321 29.7963 26.2362 27.8204V2.76193C26.2362 1.20455 24.9678 0 23.4743 0ZM24.4782 27.8205C24.4761 28.239 24.2691 24.2842 24 24C22.7087 22.7067 18.7127 23.1181 17.2294 21.6375C16.0625 20.4171 13.941 20.4167 12.7747 21.6351C11.75 22.6578 9.74432 24.663 8.16321 26.2436L6 19C5.73496 19.2812 5.53202 28.2695 5.52352 27.8364L19.5 18C19.5 17.4385 5.97866 1.75796 6.52755 1.75796L9.5 11C10.0481 11 5.52352 11.4378 5.52352 12L24.4782 27.8205Z" fill="black"/>
</svg>
