<svg width="30" height="30" viewBox="0 0 30 30" fill="none" xmlns="http://www.w3.org/2000/svg">
<path d="M14.999 1C15.4711 1.00009 15.9101 1.18236 16.2441 1.5166L28.4824 13.7539V13.7549H28.4834V13.7559H28.4844C29.1257 14.3996 29.1647 15.4219 28.6025 16.1123L28.4824 16.2461C28.1478 16.5804 27.7083 16.7617 27.2363 16.7617H25.7842V26.7676C25.7842 27.9973 24.7821 29 23.5518 29H18.8857V22.0605C18.8857 20.695 17.7757 19.5859 16.4102 19.5859H13.5869C12.2214 19.5859 11.1123 20.695 11.1123 22.0605V29H6.44531C5.21499 29 4.21289 27.9973 4.21289 26.7676V16.7617H2.72852L2.70996 16.7598L2.68262 16.7588C2.23929 16.7397 1.8281 16.5596 1.51465 16.2461V16.2451L1.39355 16.1123C0.832611 15.4238 0.870835 14.4036 1.50879 13.7598C1.51301 13.7555 1.51699 13.7516 1.51953 13.749C1.52188 13.7466 1.52458 13.745 1.52539 13.7441V13.7432L13.7529 1.5166C14.0873 1.18225 14.5266 1 14.999 1Z" stroke="black" stroke-width="2"/>
</svg>
