<svg width="30" height="30" viewBox="0 0 30 30" fill="none" xmlns="http://www.w3.org/2000/svg">
<path d="M26.7038 20.5793L24.9607 18.8033C24.7169 18.5555 24.5827 18.2273 24.5827 17.8799V12.5098C24.5827 8.175 21.6888 4.5041 17.7314 3.32637C17.7671 3.14824 17.7859 2.96602 17.7859 2.7832C17.7859 1.24863 16.5372 0 15.0027 0C13.4681 0 12.2195 1.24863 12.2195 2.7832C12.2195 2.96777 12.2376 3.14941 12.2722 3.32695C8.31595 4.50527 5.42259 8.17559 5.42259 12.5098V17.8799C5.42259 18.2273 5.28841 18.5555 5.04466 18.8033L3.30149 20.5793C2.33353 21.5648 2.06399 22.9688 2.59896 24.2432C3.13333 25.517 4.32396 26.3086 5.7056 26.3086H10.8437C11.0909 28.3846 12.8611 30 15.0027 30C17.1443 30 18.9144 28.3846 19.1617 26.3086H24.2997C25.6814 26.3086 26.872 25.517 27.4064 24.2432C27.9413 22.9688 27.6718 21.5648 26.7038 20.5793ZM14.2702 2.7832C14.2702 2.37949 14.599 2.05078 15.0027 2.05078C15.4064 2.05078 15.7351 2.37949 15.7351 2.7832C15.7351 2.84648 15.7269 2.90332 15.714 2.95605C15.479 2.93906 15.2417 2.92969 15.0027 2.92969C14.7636 2.92969 14.5263 2.93906 14.2913 2.95605C14.2784 2.90391 14.2702 2.84648 14.2702 2.7832ZM15.0027 27.9492C13.9949 27.9492 13.1482 27.2484 12.9232 26.3086H17.0822C16.8572 27.2484 16.0105 27.9492 15.0027 27.9492ZM25.5156 23.4498C25.4359 23.6396 25.113 24.2578 24.2997 24.2578H5.7056C4.89232 24.2578 4.56946 23.6391 4.48978 23.4498C4.41009 23.26 4.19505 22.5967 4.76458 22.016L6.50833 20.24C7.1306 19.6061 7.47337 18.7682 7.47337 17.8799V12.5098C7.47337 8.3584 10.8507 4.98047 15.0027 4.98047C19.1546 4.98047 22.532 8.3584 22.532 12.5098V17.8799C22.532 18.7682 22.8747 19.6061 23.497 20.24L25.2408 22.016C25.8103 22.5961 25.5952 23.26 25.5156 23.4498Z" fill="black"/>
</svg>
