<svg width="30" height="30" viewBox="0 0 30 30" fill="none" xmlns="http://www.w3.org/2000/svg">
<path d="M26.3756 20.5793L24.6324 18.8033C24.3887 18.5555 24.2545 18.2273 24.2545 17.8799V12.5098C24.2545 8.175 21.3605 4.5041 17.4031 3.32637C17.4389 3.14824 17.4576 2.96602 17.4576 2.7832C17.4576 1.24863 16.209 0 14.6744 0C13.1398 0 11.8912 1.24863 11.8912 2.7832C11.8912 2.96777 11.9094 3.14941 11.9439 3.32695C7.9877 4.50527 5.09434 8.17559 5.09434 12.5098V17.8799C5.09434 18.2273 4.96016 18.5555 4.71641 18.8033L2.97324 20.5793C2.00527 21.5648 1.73574 22.9688 2.2707 24.2432C2.80508 25.517 3.9957 26.3086 5.37734 26.3086H10.5154C10.7627 28.3846 12.5328 30 14.6744 30C16.816 30 18.5861 28.3846 18.8334 26.3086H23.9715C25.3531 26.3086 26.5438 25.517 27.0781 24.2432C27.6131 22.9688 27.3436 21.5648 26.3756 20.5793ZM13.942 2.7832C13.942 2.37949 14.2707 2.05078 14.6744 2.05078C15.0781 2.05078 15.4068 2.37949 15.4068 2.7832C15.4068 2.84648 15.3986 2.90332 15.3857 2.95605C15.1508 2.93906 14.9135 2.92969 14.6744 2.92969C14.4354 2.92969 14.198 2.93906 13.9631 2.95605C13.9502 2.90391 13.942 2.84648 13.942 2.7832ZM14.6744 27.9492C13.6666 27.9492 12.8199 27.2484 12.5949 26.3086H16.7539C16.5289 27.2484 15.6822 27.9492 14.6744 27.9492ZM25.1873 23.4498C25.1076 23.6396 19.8914 8.69141 19.0781 8.69141L6.07812 22C5.26484 22 4.24121 23.6391 4.16152 23.4498C4.08184 23.26 6.93034 26.0807 7.49987 25.5L7.14512 25C7.76738 24.366 9.2694 25.8883 9.2694 25L20.2694 25.5C20.2694 21.3486 10.5225 24.2578 14.6744 24.2578C18.8264 24.2578 11.5781 12.3486 11.5781 16.5L22.2037 17.8799C22.2037 18.7682 22.5465 19.6061 23.1687 20.24H16.7539C17.3234 20.8201 25.267 23.26 25.1873 23.4498Z" fill="black"/>
</svg>
