<svg width="25" height="26" viewBox="0 0 25 26" fill="none" xmlns="http://www.w3.org/2000/svg">
<path d="M13.8023 19.5068C13.8023 16.5271 16.2266 14.1029 19.2055 14.1029C21.007 14.1029 22.6008 14.992 23.5828 16.3505C23.943 15.231 24.1406 14.0396 24.1406 12.8013C24.1406 6.38258 18.918 1.16071 12.5 1.16071C6.08203 1.16071 0.859375 6.38258 0.859375 12.8013C0.859375 19.2201 6.08125 24.442 12.5 24.442C13.7383 24.442 14.9297 24.2435 16.0492 23.8841C14.6914 22.9013 13.8023 21.3084 13.8023 19.5068ZM11.625 16.3873C11.5312 17.856 9.92969 18.1216 9.17969 19.8326C8.94219 20.3779 8.74297 21.2029 8.92344 22.3779C5.04141 20.9232 2.26563 17.1849 2.26563 12.8013C2.26563 12.7349 2.27422 12.6701 2.27578 12.6037C2.97813 13.4873 3.65234 13.8466 4.28125 13.8951C6.09375 14.0357 7.01563 11.5357 8.83594 11.7779C10.125 11.9498 10.8906 13.3951 11.125 13.8951C11.1484 13.9498 11.1719 13.9966 11.1797 14.0201C11.1797 14.0201 11.6953 15.192 11.625 16.3873ZM13.7672 2.65367C16.9781 3.05289 19.7266 4.94352 21.3047 7.61071C21.1438 7.59508 20.9812 7.58024 20.8359 7.55133C19.6406 7.31696 19.6562 6.78571 18.7344 6.73102C17.0703 6.62164 16.3125 8.33258 15.0312 8.04352C14.25 7.86383 13.8125 7.05133 13.6875 6.80914C13.1242 5.74977 13.2281 4.17164 13.7672 2.65367Z" fill="black"/>
<path d="M19.2047 15.2756C16.8672 15.2756 14.9727 17.1701 14.9727 19.5076C14.9727 21.8451 16.8672 23.7396 19.2047 23.7396C21.5422 23.7389 23.4367 21.8443 23.4367 19.5068C23.4367 17.1701 21.5422 15.2756 19.2047 15.2756ZM20.6461 20.9474C20.5086 21.0849 20.3289 21.1537 20.1484 21.1537C19.968 21.1537 19.7883 21.0849 19.6508 20.9482L18.707 20.0045C18.5758 19.8724 18.5008 19.6935 18.5008 19.5068V17.5178C18.5008 17.1295 18.8156 16.8146 19.2039 16.8146C19.5922 16.8146 19.907 17.1295 19.907 17.5178V19.2154L20.6445 19.9529C20.9203 20.2279 20.9203 20.6732 20.6461 20.9474Z" fill="black"/>
</svg>
