<svg width="20" height="21" viewBox="0 0 20 21" fill="none" xmlns="http://www.w3.org/2000/svg">
<path fill-rule="evenodd" clip-rule="evenodd" d="M10 0.5C15.523 0.5 20 4.97695 20 10.5C20 16.023 15.523 20.5 10 20.5C4.47695 20.5 0 16.023 0 10.5C0 4.97695 4.47695 0.5 10 0.5ZM5.12891 8.12305V11.6906C5.13203 12.4977 5.79102 13.1469 6.59453 13.1434H11.7953C11.943 13.1434 12.0617 13.0246 12.0617 12.8801V9.31211C12.0586 8.50547 11.3996 7.85625 10.5961 7.85938H5.3957C5.24766 7.85938 5.12891 7.97852 5.12891 8.12305ZM12.393 9.51484L14.5402 7.94609C14.7266 7.7918 14.8711 7.83047 14.8711 8.11016V12.893C14.8711 13.2109 14.6945 13.1727 14.5402 13.0566L12.393 11.4914V9.51484Z" fill="#323232"/>
</svg>
